PathFileType	4	(X/Y/Z)	Patient4_TMGait_0pt5_01_left_20.trc.trc
DataRate	CameraRate	NumFrames	NumMarkers	Units	OrigDataRate	OrigDataStartFrame	OrigNumFrames
74.074074074074	74.074074074074	4	33	mm	74.074074074074	106	       141
Frame#	Time	L.ASIS			Sacral			L.Shoulder			Chest			R.Shoulder			Neck			R.ASIS			R.Thigh.Superior			R.Thigh.Lateral			R.Thigh.Inferior			R.Patella			L.Thigh.Superior			L.Thigh.Lateral			L.Thigh.Inferior			L.Patella			L.Shank.Superior			L.Shank.Lateral			L.Shank.Inferior			R.Shank.Superior			R.Shank.Lateral			R.Shank.Inferior			R.Heel			R.Midfoot.Superior			R.Midfoot.Lateral			R.Toe			L.Heel			L.Midfoot.Lateral			L.Midfoot.Superior			L.Toe			L.Elbow			L.Wrist			R.Elbow			R.Wrist			
		X1	Y1	Z1	X2	Y2	Z2	X3	Y3	Z3	X4	Y4	Z4	X5	Y5	Z5	X6	Y6	Z6	X7	Y7	Z7	X8	Y8	Z8	X9	Y9	Z9	X10	Y10	Z10	X11	Y11	Z11	X12	Y12	Z12	X13	Y13	Z13	X14	Y14	Z14	X15	Y15	Z15	X16	Y16	Z16	X17	Y17	Z17	X18	Y18	Z18	X19	Y19	Z19	X20	Y20	Z20	X21	Y21	Z21	X22	Y22	Z22	X23	Y23	Z23	X24	Y24	Z24	X25	Y25	Z25	X26	Y26	Z26	X27	Y27	Z27	X28	Y28	Z28	X29	Y29	Z29	X30	Y30	Z30	X31	Y31	Z31	X32	Y32	Z32	X33	Y33	Z33	

106	28.147500000000	899.736268179177	967.120160849553	364.423846525558	699.857617454037	1013.623313123974	537.249417348432	865.766444503098	1441.374636082185	353.413180823557	982.574455036129	1364.600214143317	501.624556278189	919.457223502550	1436.375649918186	685.660060908421	884.705538930644	1499.103405682337	504.439649794232	932.605990048961	941.335068604623	636.093749686507	961.508322153500	739.089123768943	603.646038678481	876.795944988716	633.984886719705	663.373046149808	947.753152678957	579.272450537505	579.606023730346	943.324009514683	492.483993590460	582.698122109030	978.446245922151	781.364136690493	389.332107543242	926.455139795053	654.533048784324	316.762479188589	1027.676657444269	590.356708080983	375.935263564990	1044.958818260575	509.031980193798	369.487334491352	999.969308884825	435.795212201646	361.821386018683	882.229616830322	347.771208914480	314.941914668933	918.290027622175	222.161329668832	369.206942235360	915.784486471364	404.727792880915	588.410213895889	844.939245939454	300.387442843623	648.652802360327	884.202463710535	207.068856544111	581.805144771318	745.897719794513	43.389898560833	549.780821661153	919.412305347251	97.396006920525	581.280568183054	831.300498746739	36.590161923908	622.240124362515	1039.158983975426	43.740672378872	605.301663674250	766.699827734635	89.001100309128	411.493378178991	832.067177194277	75.528329854481	325.907050432024	926.707792439887	121.128416004782	344.909439356880	1038.713214927258	51.063338540792	305.212211151836	776.338086477186	1096.029008500280	243.392205529942	800.403268316797	837.975247012548	220.642405104740	948.540458390538	1093.420450173080	811.034983853270	1151.468807367240	937.393697410052	769.559147083969	
107	28.161000000000	897.511701934860	967.470850168697	364.164176415272	698.602410779780	1014.276975369664	538.357324144484	864.534590742344	1441.792446337498	354.265982520640	982.185895347023	1364.377709525710	501.440975710262	920.678543324094	1435.964703768653	686.063535973066	884.508671598955	1499.089341962994	505.303790936148	931.653889285710	941.017752144912	635.671980888002	958.165240968573	738.280367697162	602.979375756657	872.769261437377	633.882935891591	663.484928038567	942.498522295628	578.480883116656	579.310946593214	937.256233304959	492.079547498858	582.502015204135	976.016755146486	782.060680167569	389.816279462322	924.960232647765	655.316717760804	316.521922395192	1025.330990216296	591.326166543459	377.214058276275	1044.399912461962	512.121899294017	370.503493320646	1003.551965299562	438.357637228822	361.796440780992	892.409136881257	343.284015308084	313.194580323093	936.040204327215	219.800392527557	367.457003381865	909.642108177815	404.416041643224	588.319018780818	838.648851799051	300.216956010210	648.630533294546	877.619145180857	206.847025871937	581.688898275375	739.066310506590	43.298192721379	549.755573983208	912.507644072696	97.322234743002	581.233528321016	824.446112050049	36.570894205245	622.270904924627	1032.299199692739	43.761881382997	605.356180338265	793.090542021412	76.854541888657	407.872275638625	860.218971851723	67.804333136313	322.983041251388	951.555800819326	119.309178870761	343.007626881242	1068.258688785582	56.637602186045	304.531036952004	770.942233101175	1097.982921940297	243.494798933823	790.815896383564	839.751713014055	219.853502414306	956.292177405174	1093.592079844762	810.384955801946	1166.222341441788	949.232564704661	763.878270804636	
108	28.174500000000	895.352807299311	967.612929852771	363.829429868825	697.345986515291	1014.797831905389	539.313621025236	863.365415283236	1442.053241584070	354.914962398357	981.771859805534	1364.030259878979	501.125167896564	921.757027167551	1435.434980797337	686.269577154357	884.290379054828	1498.958535573720	505.961516395121	930.702040599655	940.662729518997	635.220794854644	954.934604039118	737.442417945388	602.404039361952	868.828101074276	633.730897431104	663.581647851114	937.390368057082	577.675138929402	579.062525964844	931.353805795020	491.634614258196	582.328880866875	973.301578394873	782.326229779900	390.258610714337	923.117040513083	655.832534454187	316.054330679234	1022.575582466216	591.884527339621	378.283569888141	1043.345768360563	514.914016153366	371.385545082698	1006.650454151186	440.933147452780	361.729585964202	902.624933024875	339.204820986378	311.313565163875	953.522921725746	218.389449011284	365.875765828391	903.609679784806	404.057828044910	588.222988015345	832.445520585122	300.010282038864	648.609632768929	871.063054278095	206.581429296659	581.558722787047	732.226210624077	43.202706949942	549.731775411136	905.578940885841	97.239360301485	581.168311440544	817.585564555511	36.547964228199	622.299215402614	1025.434564562616	43.785167306339	605.405415352541	819.600362221407	66.463854130431	404.323879850371	888.502241708376	61.568556919923	320.393833165327	976.208403240872	118.661894742616	341.523177553159	1097.155457749301	63.300104157151	304.857970913098	765.831256359519	1099.732976673249	243.518179106011	782.015359540457	841.386755729700	219.117219962194	963.870471332837	1093.744580459832	809.321129139621	1180.160381674049	961.745186662363	757.571001063034	
109	28.188000000000	893.277001198264	967.566631417078	363.431341650778	696.117026602809	1015.174261147709	540.131600019801	862.256780387360	1442.163411483104	355.351871362908	981.327389079282	1363.581151000613	500.681576228045	922.671507469290	1434.822987558854	686.276793883654	884.044480602209	1498.726960898669	506.399197897516	929.780664184264	940.280978801483	634.758530555386	951.863689638237	736.583146354254	601.917550222926	865.026964434822	633.528102516022	663.648949597533	932.492910778156	576.862768816686	578.845928194597	925.682467921695	491.142380103554	582.158184383035	970.379483466718	782.216757091145	390.611898498775	921.005520323846	656.116368121562	315.355757279242	1019.580087477412	592.099728089246	379.036392680229	1041.917674220129	517.408676684172	372.063220200626	1009.300581946224	443.518084553768	361.582452382788	912.708783978806	335.655103064546	309.364637600023	970.456081740599	217.961113392528	364.480116232259	897.738696753117	403.648261150784	588.106667484891	826.369176318613	299.774903831235	648.579268923254	864.558280254983	206.274795741110	581.410438177466	725.378937143701	43.107640213750	549.712353032375	898.630518043795	97.149375108301	581.086791734816	810.720982356579	36.523174428460	622.326120359886	1018.568275705530	43.811382778277	605.449757789070	845.719676520644	58.020656510458	400.984671092939	916.381786485946	56.887739998336	318.235771608552	1000.251604621792	119.156848378815	340.463719251466	1124.937583270670	70.838116350720	306.146361869854	761.021651193850	1101.269640956174	243.465103676092	774.003944378580	842.845595215412	218.422529080831	971.276951438592	1093.901735897970	807.825122741542	1193.180441171246	974.884081689476	750.679903213737	
